<svg xmlns="http://www.w3.org/2000/svg" width="900" height="330" viewBox="0 0 900 330" role="img" aria-label="Contribution light curve"><style>
.mono{font-family:'JetBrains Mono','Fira Code','SFMono-Regular',Menlo,Consolas,monospace} .sans{font-family:'Segoe UI',-apple-system,'Helvetica Neue',Helvetica,Arial,sans-serif}
.tw{animation:tw 3s ease-in-out infinite}
@keyframes tw{0%,100%{opacity:.15}50%{opacity:1}}
.blink{animation:blink 1s steps(1) infinite}
@keyframes blink{50%{opacity:0}}
.orbit{animation:orbit 6s linear infinite}
@keyframes orbit{from{stroke-dashoffset:100}to{stroke-dashoffset:0}}
.fade{opacity:0;animation:fade .5s ease-out forwards}
@keyframes fade{to{opacity:1}}
.draw{stroke-dasharray:100;stroke-dashoffset:100;animation:draw 2.4s ease-out forwards}@keyframes draw{to{stroke-dashoffset:0}}.area{opacity:0;animation:fade 1s ease-out 1.8s forwards}</style><defs>
<filter id="glow" x="-50%" y="-50%" width="200%" height="200%">
  <feGaussianBlur stdDeviation="3" result="b"/>
  <feMerge><feMergeNode in="b"/><feMergeNode in="SourceGraphic"/></feMerge>
</filter>
<filter id="softglow" x="-50%" y="-50%" width="200%" height="200%">
  <feGaussianBlur stdDeviation="1.6" result="b"/>
  <feMerge><feMergeNode in="b"/><feMergeNode in="SourceGraphic"/></feMerge>
</filter>
<linearGradient id="bg" x1="0" y1="0" x2="1" y2="1">
  <stop offset="0" stop-color="#070b16"/><stop offset="1" stop-color="#0f1530"/>
</linearGradient>
<linearGradient id="neon" x1="0" y1="0" x2="1" y2="0">
  <stop offset="0" stop-color="#22d3ee"/><stop offset=".55" stop-color="#a78bfa"/>
  <stop offset="1" stop-color="#f472b6"/>
</linearGradient>
<radialGradient id="nebV"><stop offset="0" stop-color="#a78bfa" stop-opacity=".35"/>
  <stop offset="1" stop-color="#a78bfa" stop-opacity="0"/></radialGradient>
<radialGradient id="nebC"><stop offset="0" stop-color="#22d3ee" stop-opacity=".22"/>
  <stop offset="1" stop-color="#22d3ee" stop-opacity="0"/></radialGradient>
<linearGradient id="areaG" x1="0" y1="0" x2="0" y2="1"><stop offset="0" stop-color="#a78bfa" stop-opacity=".35"/><stop offset="1" stop-color="#22d3ee" stop-opacity="0"/></linearGradient></defs><rect x="1" y="1" width="898" height="328" rx="16" fill="url(#bg)" stroke="#1e293b" stroke-width="1.5"/><rect class="orbit" x="1" y="1" width="898" height="328" rx="16" fill="none" stroke="#f472b6" stroke-width="2" pathLength="100" stroke-dasharray="10 90" stroke-linecap="round" filter="url(#softglow)" style="animation-duration:11s"/><circle class="tw" cx="593.4" cy="287.8" r="0.8" fill="#e2e8f0" style="animation-duration:5.0s;animation-delay:-2.1s"/><circle class="tw" cx="336.6" cy="313.6" r="1.2" fill="#e2e8f0" style="animation-duration:2.0s;animation-delay:-3.0s"/><circle class="tw" cx="383.7" cy="182.1" r="1.6" fill="#a78bfa" style="animation-duration:3.8s;animation-delay:-0.9s"/><circle class="tw" cx="448.7" cy="230.0" r="1.6" fill="#e2e8f0" style="animation-duration:2.9s;animation-delay:-4.1s"/><circle class="tw" cx="640.7" cy="180.3" r="0.5" fill="#e2e8f0" style="animation-duration:4.7s;animation-delay:-2.7s"/><circle class="tw" cx="686.6" cy="66.5" r="0.6" fill="#e2e8f0" style="animation-duration:4.1s;animation-delay:-0.5s"/><circle class="tw" cx="136.4" cy="145.8" r="0.5" fill="#22d3ee" style="animation-duration:5.0s;animation-delay:-0.8s"/><circle class="tw" cx="498.5" cy="189.8" r="1.0" fill="#e2e8f0" style="animation-duration:2.8s;animation-delay:-4.9s"/><circle class="tw" cx="213.9" cy="119.7" r="1.0" fill="#a78bfa" style="animation-duration:3.0s;animation-delay:-3.6s"/><circle class="tw" cx="38.8" cy="250.8" r="1.0" fill="#a78bfa" style="animation-duration:3.2s;animation-delay:-4.9s"/><circle class="tw" cx="778.6" cy="249.9" r="0.8" fill="#e2e8f0" style="animation-duration:3.7s;animation-delay:-4.2s"/><circle class="tw" cx="204.8" cy="167.6" r="1.2" fill="#e2e8f0" style="animation-duration:4.6s;animation-delay:-1.8s"/><circle class="tw" cx="697.3" cy="193.1" r="1.0" fill="#e2e8f0" style="animation-duration:5.1s;animation-delay:-4.9s"/><circle class="tw" cx="630.2" cy="266.7" r="0.8" fill="#e2e8f0" style="animation-duration:3.0s;animation-delay:-0.7s"/><circle class="tw" cx="870.7" cy="249.4" r="0.5" fill="#22d3ee" style="animation-duration:3.2s;animation-delay:-1.8s"/><circle class="tw" cx="721.0" cy="306.8" r="0.8" fill="#a78bfa" style="animation-duration:4.9s;animation-delay:-3.6s"/><circle class="tw" cx="557.6" cy="109.8" r="0.5" fill="#e2e8f0" style="animation-duration:2.2s;animation-delay:-2.8s"/><circle class="tw" cx="124.4" cy="53.6" r="1.2" fill="#e2e8f0" style="animation-duration:2.2s;animation-delay:-4.9s"/><circle class="tw" cx="725.4" cy="143.7" r="1.6" fill="#e2e8f0" style="animation-duration:3.3s;animation-delay:-1.1s"/><circle class="tw" cx="480.6" cy="243.5" r="1.6" fill="#e2e8f0" style="animation-duration:3.0s;animation-delay:-4.3s"/><circle class="tw" cx="118.0" cy="167.6" r="1.2" fill="#e2e8f0" style="animation-duration:3.0s;animation-delay:-4.6s"/><circle class="tw" cx="854.2" cy="184.2" r="1.2" fill="#22d3ee" style="animation-duration:3.8s;animation-delay:-4.3s"/><circle class="tw" cx="118.8" cy="319.3" r="1.6" fill="#22d3ee" style="animation-duration:4.1s;animation-delay:-5.0s"/><circle class="tw" cx="800.9" cy="262.3" r="1.2" fill="#a78bfa" style="animation-duration:3.5s;animation-delay:-1.9s"/><circle class="tw" cx="80.0" cy="79.1" r="0.5" fill="#22d3ee" style="animation-duration:3.9s;animation-delay:-2.5s"/><circle class="tw" cx="96.7" cy="108.6" r="0.8" fill="#e2e8f0" style="animation-duration:3.2s;animation-delay:-2.3s"/><circle class="tw" cx="710.2" cy="224.4" r="1.2" fill="#e2e8f0" style="animation-duration:3.1s;animation-delay:-1.9s"/><circle class="tw" cx="766.1" cy="307.3" r="1.2" fill="#e2e8f0" style="animation-duration:4.9s;animation-delay:-0.8s"/><circle class="tw" cx="527.2" cy="228.6" r="0.6" fill="#e2e8f0" style="animation-duration:5.4s;animation-delay:-4.6s"/><circle class="tw" cx="269.6" cy="24.9" r="0.6" fill="#e2e8f0" style="animation-duration:4.9s;animation-delay:-1.7s"/><circle class="tw" cx="289.1" cy="85.0" r="1.0" fill="#e2e8f0" style="animation-duration:4.3s;animation-delay:-2.8s"/><circle class="tw" cx="123.1" cy="247.6" r="1.0" fill="#e2e8f0" style="animation-duration:2.9s;animation-delay:-3.6s"/><circle class="tw" cx="575.8" cy="198.6" r="1.6" fill="#a78bfa" style="animation-duration:2.4s;animation-delay:-1.5s"/><circle class="tw" cx="789.9" cy="258.8" r="1.6" fill="#e2e8f0" style="animation-duration:3.8s;animation-delay:-0.2s"/><circle class="tw" cx="190.4" cy="99.0" r="1.6" fill="#e2e8f0" style="animation-duration:3.7s;animation-delay:-1.3s"/><circle class="tw" cx="421.1" cy="315.0" r="1.6" fill="#a78bfa" style="animation-duration:2.8s;animation-delay:-3.5s"/><circle class="tw" cx="854.5" cy="311.0" r="0.6" fill="#e2e8f0" style="animation-duration:2.8s;animation-delay:-3.2s"/><circle class="tw" cx="359.6" cy="238.8" r="0.8" fill="#a78bfa" style="animation-duration:4.0s;animation-delay:-4.0s"/><circle class="tw" cx="596.6" cy="294.3" r="0.6" fill="#e2e8f0" style="animation-duration:5.2s;animation-delay:-2.0s"/><circle class="tw" cx="162.2" cy="276.8" r="1.6" fill="#e2e8f0" style="animation-duration:4.9s;animation-delay:-0.3s"/><circle class="tw" cx="807.6" cy="244.2" r="1.6" fill="#e2e8f0" style="animation-duration:4.3s;animation-delay:-0.4s"/><circle class="tw" cx="616.6" cy="228.1" r="0.8" fill="#a78bfa" style="animation-duration:3.2s;animation-delay:-2.3s"/><circle class="tw" cx="360.9" cy="235.6" r="0.5" fill="#a78bfa" style="animation-duration:2.6s;animation-delay:-4.4s"/><circle class="tw" cx="854.7" cy="248.4" r="0.6" fill="#e2e8f0" style="animation-duration:4.6s;animation-delay:-2.4s"/><circle class="tw" cx="553.9" cy="161.5" r="1.2" fill="#22d3ee" style="animation-duration:2.2s;animation-delay:-1.6s"/><circle class="tw" cx="45.5" cy="30.1" r="1.6" fill="#22d3ee" style="animation-duration:5.4s;animation-delay:-3.6s"/><circle class="tw" cx="713.6" cy="16.6" r="0.6" fill="#a78bfa" style="animation-duration:3.5s;animation-delay:-2.5s"/><circle class="tw" cx="135.9" cy="290.8" r="0.6" fill="#e2e8f0" style="animation-duration:2.8s;animation-delay:-1.7s"/><circle class="tw" cx="741.1" cy="31.9" r="1.6" fill="#e2e8f0" style="animation-duration:3.6s;animation-delay:-3.8s"/><circle class="tw" cx="725.2" cy="24.2" r="0.5" fill="#e2e8f0" style="animation-duration:2.8s;animation-delay:-2.7s"/><circle class="tw" cx="11.8" cy="100.8" r="0.8" fill="#e2e8f0" style="animation-duration:2.2s;animation-delay:-0.3s"/><circle class="tw" cx="214.5" cy="312.4" r="0.8" fill="#22d3ee" style="animation-duration:2.6s;animation-delay:-3.6s"/><circle class="tw" cx="840.4" cy="95.5" r="1.0" fill="#e2e8f0" style="animation-duration:2.2s;animation-delay:-0.7s"/><circle class="tw" cx="844.0" cy="29.5" r="1.6" fill="#e2e8f0" style="animation-duration:2.2s;animation-delay:-2.6s"/><circle class="tw" cx="111.1" cy="37.1" r="0.8" fill="#22d3ee" style="animation-duration:2.7s;animation-delay:-2.8s"/><circle class="tw" cx="456.9" cy="87.6" r="1.6" fill="#e2e8f0" style="animation-duration:4.5s;animation-delay:-3.4s"/><circle class="tw" cx="867.2" cy="237.0" r="0.8" fill="#e2e8f0" style="animation-duration:5.2s;animation-delay:-3.5s"/><circle class="tw" cx="286.2" cy="305.1" r="0.6" fill="#e2e8f0" style="animation-duration:4.1s;animation-delay:-3.4s"/><circle class="tw" cx="467.5" cy="136.9" r="1.2" fill="#e2e8f0" style="animation-duration:5.4s;animation-delay:-3.1s"/><circle class="tw" cx="69.7" cy="208.7" r="1.2" fill="#22d3ee" style="animation-duration:4.0s;animation-delay:-3.6s"/><text class="mono" x="32" y="42" font-size="13" fill="#7c8aa5">// light curve — haftalık katkılar, son 12 ay</text><text class="sans" x="868" y="46" font-size="30" font-weight="800" fill="url(#neon)" text-anchor="end" filter="url(#softglow)">847</text><text class="mono" x="868" y="64" font-size="11.5" fill="#7c8aa5" text-anchor="end">katkı · en uzun seri 11 gün</text><line x1="40" y1="100" x2="860" y2="100" stroke="#1e293b" stroke-dasharray="2 6"/><line x1="40" y1="157.0" x2="860" y2="157.0" stroke="#1e293b" stroke-dasharray="2 6"/><line x1="40" y1="214" x2="860" y2="214" stroke="#1e293b" stroke-dasharray="2 6"/><path class="area" d="M40.0 211.5 C42.6 211.9 50.5 214.3 55.8 214.0 C61.0 213.7 66.3 209.7 71.5 209.7 C76.8 209.7 82.1 213.3 87.3 214.0 C92.6 214.7 97.8 214.0 103.1 214.0 C108.3 214.0 113.6 214.0 118.8 214.0 C124.1 214.0 129.4 215.8 134.6 214.0 C139.9 212.2 145.1 208.1 150.4 203.0 C155.6 198.0 160.9 185.4 166.2 183.8 C171.4 182.3 176.7 194.0 181.9 193.6 C187.2 193.2 192.4 182.6 197.7 181.4 C202.9 180.2 208.2 184.5 213.5 186.4 C218.7 188.3 224.0 191.9 229.2 192.7 C234.5 193.4 239.7 191.1 245.0 190.8 C250.3 190.5 255.5 189.0 260.8 190.8 C266.0 192.7 271.3 198.7 276.5 201.9 C281.8 205.0 287.1 207.7 292.3 209.7 C297.6 211.7 302.8 213.3 308.1 214.0 C313.3 214.7 318.6 214.0 323.8 214.0 C329.1 214.0 334.4 215.6 339.6 214.0 C344.9 212.4 350.1 206.1 355.4 204.2 C360.6 202.4 365.9 202.1 371.2 203.0 C376.4 204.0 381.7 208.9 386.9 209.7 C392.2 210.6 397.4 208.2 402.7 208.2 C407.9 208.2 413.2 208.8 418.5 209.7 C423.7 210.7 429.0 215.3 434.2 214.0 C439.5 212.7 444.7 202.9 450.0 201.9 C455.3 200.9 460.5 209.6 465.8 208.2 C471.0 206.8 476.3 195.7 481.5 193.6 C486.8 191.5 492.1 194.0 497.3 195.6 C502.6 197.1 507.8 206.1 513.1 203.0 C518.3 200.0 523.6 176.3 528.8 177.4 C534.1 178.5 539.4 208.2 544.6 209.7 C549.9 211.2 555.1 189.7 560.4 186.4 C565.6 183.1 570.9 190.1 576.2 189.9 C581.4 189.8 586.7 181.5 591.9 185.5 C597.2 189.5 602.4 209.3 607.7 214.0 C612.9 218.7 618.2 214.0 623.5 214.0 C628.7 214.0 634.0 219.4 639.2 214.0 C644.5 208.6 649.7 186.5 655.0 181.4 C660.3 176.2 665.5 177.6 670.8 183.0 C676.0 188.4 681.3 208.8 686.5 214.0 C691.8 219.2 697.1 214.0 702.3 214.0 C707.6 214.0 712.8 214.0 718.1 214.0 C723.3 214.0 728.6 214.0 733.8 214.0 C739.1 214.0 744.4 214.0 749.6 214.0 C754.9 214.0 760.1 214.0 765.4 214.0 C770.6 214.0 775.9 229.4 781.2 214.0 C786.4 198.6 791.7 130.8 796.9 121.7 C802.2 112.5 807.4 146.1 812.7 159.1 C817.9 172.1 823.2 209.5 828.5 199.7 C833.7 189.8 839.0 110.4 844.2 100.0 C849.5 89.6 857.4 130.9 860.0 137.1 L860 214 L40 214 Z" fill="url(#areaG)"/><path class="draw" d="M40.0 211.5 C42.6 211.9 50.5 214.3 55.8 214.0 C61.0 213.7 66.3 209.7 71.5 209.7 C76.8 209.7 82.1 213.3 87.3 214.0 C92.6 214.7 97.8 214.0 103.1 214.0 C108.3 214.0 113.6 214.0 118.8 214.0 C124.1 214.0 129.4 215.8 134.6 214.0 C139.9 212.2 145.1 208.1 150.4 203.0 C155.6 198.0 160.9 185.4 166.2 183.8 C171.4 182.3 176.7 194.0 181.9 193.6 C187.2 193.2 192.4 182.6 197.7 181.4 C202.9 180.2 208.2 184.5 213.5 186.4 C218.7 188.3 224.0 191.9 229.2 192.7 C234.5 193.4 239.7 191.1 245.0 190.8 C250.3 190.5 255.5 189.0 260.8 190.8 C266.0 192.7 271.3 198.7 276.5 201.9 C281.8 205.0 287.1 207.7 292.3 209.7 C297.6 211.7 302.8 213.3 308.1 214.0 C313.3 214.7 318.6 214.0 323.8 214.0 C329.1 214.0 334.4 215.6 339.6 214.0 C344.9 212.4 350.1 206.1 355.4 204.2 C360.6 202.4 365.9 202.1 371.2 203.0 C376.4 204.0 381.7 208.9 386.9 209.7 C392.2 210.6 397.4 208.2 402.7 208.2 C407.9 208.2 413.2 208.8 418.5 209.7 C423.7 210.7 429.0 215.3 434.2 214.0 C439.5 212.7 444.7 202.9 450.0 201.9 C455.3 200.9 460.5 209.6 465.8 208.2 C471.0 206.8 476.3 195.7 481.5 193.6 C486.8 191.5 492.1 194.0 497.3 195.6 C502.6 197.1 507.8 206.1 513.1 203.0 C518.3 200.0 523.6 176.3 528.8 177.4 C534.1 178.5 539.4 208.2 544.6 209.7 C549.9 211.2 555.1 189.7 560.4 186.4 C565.6 183.1 570.9 190.1 576.2 189.9 C581.4 189.8 586.7 181.5 591.9 185.5 C597.2 189.5 602.4 209.3 607.7 214.0 C612.9 218.7 618.2 214.0 623.5 214.0 C628.7 214.0 634.0 219.4 639.2 214.0 C644.5 208.6 649.7 186.5 655.0 181.4 C660.3 176.2 665.5 177.6 670.8 183.0 C676.0 188.4 681.3 208.8 686.5 214.0 C691.8 219.2 697.1 214.0 702.3 214.0 C707.6 214.0 712.8 214.0 718.1 214.0 C723.3 214.0 728.6 214.0 733.8 214.0 C739.1 214.0 744.4 214.0 749.6 214.0 C754.9 214.0 760.1 214.0 765.4 214.0 C770.6 214.0 775.9 229.4 781.2 214.0 C786.4 198.6 791.7 130.8 796.9 121.7 C802.2 112.5 807.4 146.1 812.7 159.1 C817.9 172.1 823.2 209.5 828.5 199.7 C833.7 189.8 839.0 110.4 844.2 100.0 C849.5 89.6 857.4 130.9 860.0 137.1" pathLength="100" fill="none" stroke="url(#neon)" stroke-width="2.5" filter="url(#softglow)"/><g class="fade" style="animation-delay:2.4s"><circle class="tw" cx="844.2" cy="100.0" r="4" fill="#fff" filter="url(#glow)"/><text class="mono" x="844.2" y="89.0" font-size="10.5" fill="#e2e8f0" text-anchor="middle">159</text></g><g class="fade" style="animation-delay:2.4s"><circle class="tw" cx="796.9" cy="121.7" r="4" fill="#fff" filter="url(#glow)"/><text class="mono" x="796.9" y="110.7" font-size="10.5" fill="#e2e8f0" text-anchor="middle">120</text></g><g class="fade" style="animation-delay:2.4s"><circle class="tw" cx="860.0" cy="137.1" r="4" fill="#fff" filter="url(#glow)"/><text class="mono" x="860.0" y="126.1" font-size="10.5" fill="#e2e8f0" text-anchor="middle">94</text></g><g class="fade" style="animation-delay:2.4s"><circle class="tw" cx="812.7" cy="159.1" r="4" fill="#fff" filter="url(#glow)"/><text class="mono" x="812.7" y="148.1" font-size="10.5" fill="#e2e8f0" text-anchor="middle">60</text></g><text class="mono" x="40.0" y="232" font-size="10.5" fill="#475569">Eki</text><text class="mono" x="103.1" y="232" font-size="10.5" fill="#475569">Kas</text><text class="mono" x="181.9" y="232" font-size="10.5" fill="#475569">Ara</text><text class="mono" x="245.0" y="232" font-size="10.5" fill="#475569">Oca</text><text class="mono" x="308.1" y="232" font-size="10.5" fill="#475569">Şub</text><text class="mono" x="371.2" y="232" font-size="10.5" fill="#475569">Mar</text><text class="mono" x="450.0" y="232" font-size="10.5" fill="#475569">Nis</text><text class="mono" x="513.1" y="232" font-size="10.5" fill="#475569">May</text><text class="mono" x="591.9" y="232" font-size="10.5" fill="#475569">Haz</text><text class="mono" x="655.0" y="232" font-size="10.5" fill="#475569">Tem</text><text class="mono" x="718.1" y="232" font-size="10.5" fill="#475569">Ağu</text><text class="mono" x="796.9" y="232" font-size="10.5" fill="#475569">Eyl</text><text class="mono" x="32" y="250" font-size="11.5" fill="#7c8aa5">// spectrum — dil dağılımı (bayt)</text><rect x="32.0" y="262" width="0" height="10" fill="#3572A5"><animate attributeName="width" from="0" to="431.2" begin="0.40s" dur="0.6s" fill="freeze"/></rect><circle cx="37" cy="293" r="4.5" fill="#3572A5"/><text class="mono" x="47" y="297" font-size="11.5" fill="#e2e8f0">Python 51.8%</text><rect x="465.2" y="262" width="0" height="10" fill="#3178c6"><animate attributeName="width" from="0" to="176.0" begin="0.55s" dur="0.6s" fill="freeze"/></rect><circle cx="158" cy="293" r="4.5" fill="#3178c6"/><text class="mono" x="168" y="297" font-size="11.5" fill="#e2e8f0">TypeScript 21.3%</text><rect x="643.2" y="262" width="0" height="10" fill="#b07219"><animate attributeName="width" from="0" to="123.2" begin="0.70s" dur="0.6s" fill="freeze"/></rect><circle cx="307" cy="293" r="4.5" fill="#b07219"/><text class="mono" x="317" y="297" font-size="11.5" fill="#e2e8f0">Java 15.0%</text><rect x="768.4" y="262" width="0" height="10" fill="#f1e05a"><animate attributeName="width" from="0" to="76.8" begin="0.85s" dur="0.6s" fill="freeze"/></rect><circle cx="414" cy="293" r="4.5" fill="#f1e05a"/><text class="mono" x="424" y="297" font-size="11.5" fill="#e2e8f0">JavaScript 9.4%</text><rect x="847.2" y="262" width="0" height="10" fill="#663399"><animate attributeName="width" from="0" to="18.8" begin="1.00s" dur="0.6s" fill="freeze"/></rect><circle cx="556" cy="293" r="4.5" fill="#663399"/><text class="mono" x="566" y="297" font-size="11.5" fill="#e2e8f0">CSS 2.5%</text></svg>